<svg width="42" height="41" viewBox="0 0 42 41" fill="none" xmlns="http://www.w3.org/2000/svg">
<rect x="0.800781" width="41" height="41" rx="20.5" fill="white"/>
<path d="M33.6006 18.6729L28.0002 12.273C27.9254 12.1875 27.8331 12.1189 27.7296 12.0718C27.6262 12.0248 27.5139 12.0003 27.4002 12H16.1994C16.0857 12.0003 15.9734 12.0248 15.87 12.0718C15.7665 12.1189 15.6743 12.1875 15.5994 12.273L9.99899 18.6729C9.86834 18.8221 9.79774 19.0144 9.80088 19.2127C9.80402 19.4109 9.88068 19.6009 10.016 19.7459L21.2168 31.7457C21.2916 31.8259 21.3822 31.8899 21.4828 31.9337C21.5835 31.9774 21.6921 32 21.8018 32C21.9116 32 22.0201 31.9774 22.1208 31.9337C22.2214 31.8899 22.312 31.8259 22.3868 31.7457L33.5876 19.7459C33.7224 19.6004 33.7983 19.4101 33.8007 19.2119C33.8031 19.0136 33.7318 18.8216 33.6006 18.6729ZM31.2375 18.3999H27.0002L23.3999 13.6H27.0372L31.2375 18.3999ZM16.4574 19.9999L19.4706 27.5328L12.4402 19.9999H16.4574ZM25.4181 19.9999L21.7998 29.0457L18.1816 19.9999H25.4181ZM18.5996 18.3999L21.7998 14.133L25 18.3999H18.5996ZM27.1422 19.9999H31.1595L24.129 27.5328L27.1422 19.9999ZM16.5624 13.6H20.1997L16.5994 18.3999H12.3622L16.5624 13.6Z" fill="black"/>
</svg>
