<svg width="236" height="119" viewBox="0 0 236 119" fill="none" xmlns="http://www.w3.org/2000/svg">
<mask id="path-1-inside-1_148_103" fill="white">
<path d="M0 0H236V119H0V0Z"/>
</mask>
<path d="M0 1H236V-1H0V1ZM236 118H0V120H236V118Z" fill="white" mask="url(#path-1-inside-1_148_103)"/>
<path d="M25.45 100.73H30.7V93.68H34.03V100.73H39.58V92.78H43V104.93H22.03V92.78H25.45V100.73ZM39.01 74.9232V83.2632L43 84.6432V89.0532L22.03 81.5232V76.6332L43 69.1032V73.5432L39.01 74.9232ZM35.65 76.0632L26.89 79.0932L35.65 82.1232V76.0632ZM43 54.2886L34.84 58.9086V60.8886H43V65.0886H22.06L22.06 57.2286C22.06 55.6086 22.35 54.2286 22.93 53.0886C23.49 51.9486 24.26 51.0986 25.24 50.5386C26.2 49.9586 27.28 49.6686 28.48 49.6686C29.86 49.6686 31.11 50.0686 32.23 50.8686C33.33 51.6686 34.09 52.8586 34.51 54.4386L43 49.4286V54.2886ZM31.69 60.8886V57.3786C31.69 56.2386 31.42 55.3886 30.88 54.8286C30.32 54.2686 29.55 53.9886 28.57 53.9886C27.61 53.9886 26.87 54.2686 26.35 54.8286C25.81 55.3886 25.54 56.2386 25.54 57.3786V60.8886H31.69ZM39.67 40.4698V33.5698H43V44.6698H22.06V40.4698H39.67ZM22.06 13.0503L35.71 20.1303H43V24.3303H35.71L22.06 31.4403V26.7003L31.63 22.2003L22.06 17.7303V13.0503Z" fill="#E10002"/>
<path d="M79.32 36.316C81.208 36.668 82.76 37.612 83.976 39.148C85.192 40.684 85.8 42.444 85.8 44.428C85.8 46.22 85.352 47.804 84.456 49.18C83.592 50.524 82.328 51.58 80.664 52.348C79 53.116 77.032 53.5 74.76 53.5H60.312V19.996H74.136C76.408 19.996 78.36 20.364 79.992 21.1C81.656 21.836 82.904 22.86 83.736 24.172C84.6 25.484 85.032 26.972 85.032 28.636C85.032 30.588 84.504 32.22 83.448 33.532C82.424 34.844 81.048 35.772 79.32 36.316ZM67.032 33.82H73.176C74.776 33.82 76.008 33.468 76.872 32.764C77.736 32.028 78.168 30.988 78.168 29.644C78.168 28.3 77.736 27.26 76.872 26.524C76.008 25.788 74.776 25.42 73.176 25.42H67.032V33.82ZM73.8 48.028C75.432 48.028 76.696 47.644 77.592 46.876C78.52 46.108 78.984 45.02 78.984 43.612C78.984 42.172 78.504 41.052 77.544 40.252C76.584 39.42 75.288 39.004 73.656 39.004H67.032V48.028H73.8ZM99.7957 48.172H110.836V53.5H93.0757V19.996H99.7957V48.172ZM137.571 47.116H124.227L122.019 53.5H114.963L127.011 19.948H134.835L146.883 53.5H139.779L137.571 47.116ZM135.747 41.74L130.899 27.724L126.051 41.74H135.747ZM151.674 36.7C151.674 33.404 152.41 30.46 153.882 27.868C155.386 25.244 157.418 23.212 159.978 21.772C162.57 20.3 165.466 19.564 168.666 19.564C172.41 19.564 175.69 20.524 178.506 22.444C181.322 24.364 183.29 27.02 184.41 30.412H176.682C175.914 28.812 174.826 27.612 173.418 26.812C172.042 26.012 170.442 25.612 168.618 25.612C166.666 25.612 164.922 26.076 163.386 27.004C161.882 27.9 160.698 29.18 159.834 30.844C159.002 32.508 158.586 34.46 158.586 36.7C158.586 38.908 159.002 40.86 159.834 42.556C160.698 44.22 161.882 45.516 163.386 46.444C164.922 47.34 166.666 47.788 168.618 47.788C170.442 47.788 172.042 47.388 173.418 46.588C174.826 45.756 175.914 44.54 176.682 42.94H184.41C183.29 46.364 181.322 49.036 178.506 50.956C175.722 52.844 172.442 53.788 168.666 53.788C165.466 53.788 162.57 53.068 159.978 51.628C157.418 50.156 155.386 48.124 153.882 45.532C152.41 42.94 151.674 39.996 151.674 36.7ZM210.982 53.5L198.79 38.572V53.5H192.07V19.996H198.79V35.02L210.982 19.996H219.094L205.27 36.604L219.478 53.5H210.982ZM81 64.996V70.42H67.032V79.012H77.736V84.34H67.032V98.5H60.312V64.996H81ZM103.045 98.5L95.6531 85.444H92.4851V98.5H85.7651V64.996H98.3411C100.933 64.996 103.141 65.46 104.965 66.388C106.789 67.284 108.149 68.516 109.045 70.084C109.973 71.62 110.437 73.348 110.437 75.268C110.437 77.476 109.797 79.476 108.517 81.268C107.237 83.028 105.333 84.244 102.805 84.916L110.821 98.5H103.045ZM92.4851 80.404H98.1011C99.9251 80.404 101.285 79.972 102.181 79.108C103.077 78.212 103.525 76.98 103.525 75.412C103.525 73.876 103.077 72.692 102.181 71.86C101.285 70.996 99.9251 70.564 98.1011 70.564H92.4851V80.404ZM123.235 64.996V98.5H116.515V64.996H123.235ZM141.587 64.996C145.107 64.996 148.195 65.684 150.851 67.06C153.539 68.436 155.603 70.404 157.043 72.964C158.515 75.492 159.251 78.436 159.251 81.796C159.251 85.156 158.515 88.1 157.043 90.628C155.603 93.124 153.539 95.06 150.851 96.436C148.195 97.812 145.107 98.5 141.587 98.5H129.875V64.996H141.587ZM141.347 92.788C144.867 92.788 147.587 91.828 149.507 89.908C151.427 87.988 152.387 85.284 152.387 81.796C152.387 78.308 151.427 75.588 149.507 73.636C147.587 71.652 144.867 70.66 141.347 70.66H136.595V92.788H141.347ZM184.825 92.116H171.481L169.273 98.5H162.217L174.265 64.948H182.089L194.137 98.5H187.033L184.825 92.116ZM183.001 86.74L178.153 72.724L173.305 86.74H183.001ZM225.28 64.996L213.952 86.836V98.5H207.232V86.836L195.856 64.996H203.44L210.64 80.308L217.792 64.996H225.28Z" fill="white"/>
</svg>
