<svg width="56" height="56" viewBox="0 0 56 56" fill="none" xmlns="http://www.w3.org/2000/svg">
<rect x="1.03516" y="0.375" width="54.5888" height="55.25" fill="white"/>
<rect x="1.03516" y="0.375" width="54.5888" height="55.25" stroke="black" stroke-width="0.75"/>
<path d="M33.5391 18C31.3876 18 29.5038 18.9252 28.3296 20.4891C27.1553 18.9252 25.2716 18 23.12 18C21.4073 18.0019 19.7654 18.6831 18.5543 19.8942C17.3433 21.1052 16.6621 22.7472 16.6602 24.4599C16.6602 31.7532 27.4742 37.6567 27.9347 37.9005C28.0561 37.9658 28.1917 38 28.3296 38C28.4674 38 28.6031 37.9658 28.7245 37.9005C29.185 37.6567 39.999 31.7532 39.999 24.4599C39.9971 22.7472 39.3159 21.1052 38.1048 19.8942C36.8938 18.6831 35.2518 18.0019 33.5391 18ZM28.3296 36.2126C26.427 35.104 18.3272 30.0539 18.3272 24.4599C18.3289 23.1892 18.8344 21.9711 19.7328 21.0727C20.6313 20.1742 21.8494 19.6687 23.12 19.6671C25.1465 19.6671 26.848 20.7465 27.5586 22.4802C27.6214 22.6331 27.7282 22.7639 27.8655 22.8559C28.0028 22.9479 28.1643 22.997 28.3296 22.997C28.4948 22.997 28.6564 22.9479 28.7937 22.8559C28.931 22.7639 29.0378 22.6331 29.1006 22.4802C29.8112 20.7434 31.5126 19.6671 33.5391 19.6671C34.8098 19.6687 36.0279 20.1742 36.9263 21.0727C37.8248 21.9711 38.3303 23.1892 38.3319 24.4599C38.3319 30.0455 30.23 35.103 28.3296 36.2126Z" fill="black"/>
</svg>
