<svg width="41" height="38" viewBox="0 0 41 38" fill="none" xmlns="http://www.w3.org/2000/svg">
<path d="M3.76807 33.5833C3.76807 26.8506 9.45087 21.3928 16.461 21.3928C23.4711 21.3928 29.1539 26.8506 29.1539 33.5833H25.9806C25.9806 28.5338 21.7185 24.4404 16.461 24.4404C11.2034 24.4404 6.94129 28.5338 6.94129 33.5833H3.76807ZM16.461 19.869C11.2013 19.869 6.94129 15.7775 6.94129 10.7261C6.94129 5.67468 11.2013 1.58325 16.461 1.58325C21.7206 1.58325 25.9806 5.67468 25.9806 10.7261C25.9806 15.7775 21.7206 19.869 16.461 19.869ZM16.461 16.8213C19.9674 16.8213 22.8074 14.0937 22.8074 10.7261C22.8074 7.35849 19.9674 4.63087 16.461 4.63087C12.9546 4.63087 10.1145 7.35849 10.1145 10.7261C10.1145 14.0937 12.9546 16.8213 16.461 16.8213ZM29.604 22.4637C34.0159 24.3735 37.0869 28.6339 37.0869 33.5833H33.9137C33.9137 29.8713 31.6104 26.676 28.3015 25.2436L29.604 22.4637ZM28.5132 5.26052C31.6836 6.51587 33.9137 9.51256 33.9137 13.0118C33.9137 17.3855 30.4298 20.974 25.9806 21.3586V18.2912C28.6727 17.9218 30.7405 15.6998 30.7405 13.0118C30.7405 10.908 29.4737 9.08958 27.6323 8.2215L28.5132 5.26052Z" fill="white"/>
</svg>
