<svg width="20" height="18" viewBox="0 0 20 18" fill="none" xmlns="http://www.w3.org/2000/svg">
<path d="M19.5 6C19.5004 5.93027 19.4909 5.86083 19.4719 5.79375L18.1266 1.0875C18.0361 0.775232 17.8471 0.500591 17.5878 0.304588C17.3284 0.108585 17.0126 0.00173713 16.6875 0H2.8125C2.48741 0.00173713 2.1716 0.108585 1.91223 0.304588C1.65287 0.500591 1.46386 0.775232 1.37344 1.0875L0.0290631 5.79375C0.00969599 5.86079 -8.84455e-05 5.93022 6.02362e-07 6V7.5C6.02362e-07 8.08217 0.135545 8.65634 0.395899 9.17705C0.656253 9.69776 1.03427 10.1507 1.5 10.5V17.25C1.5 17.4489 1.57902 17.6397 1.71967 17.7803C1.86032 17.921 2.05109 18 2.25 18H17.25C17.4489 18 17.6397 17.921 17.7803 17.7803C17.921 17.6397 18 17.4489 18 17.25V10.5C18.4657 10.1507 18.8437 9.69776 19.1041 9.17705C19.3645 8.65634 19.5 8.08217 19.5 7.5V6ZM2.8125 1.5H16.6875L17.7581 5.25H1.74469L2.8125 1.5ZM7.5 6.75H12V7.5C12 8.09674 11.7629 8.66903 11.341 9.09099C10.919 9.51295 10.3467 9.75 9.75 9.75C9.15326 9.75 8.58097 9.51295 8.15901 9.09099C7.73705 8.66903 7.5 8.09674 7.5 7.5V6.75ZM6 6.75V7.5C5.99987 7.88691 5.89996 8.26725 5.70993 8.60428C5.5199 8.94131 5.24617 9.22364 4.91518 9.42401C4.58419 9.62437 4.20713 9.736 3.82041 9.74811C3.43369 9.76022 3.05038 9.67239 2.7075 9.49312C2.65533 9.45251 2.59794 9.41909 2.53688 9.39375C2.21913 9.19034 1.95764 8.91029 1.77646 8.57937C1.59527 8.24845 1.5002 7.87728 1.5 7.5V6.75H6ZM16.5 16.5H3V11.175C3.2469 11.2248 3.49813 11.2499 3.75 11.25C4.33217 11.25 4.90634 11.1145 5.42705 10.8541C5.94776 10.5937 6.4007 10.2157 6.75 9.75C7.0993 10.2157 7.55224 10.5937 8.07295 10.8541C8.59366 11.1145 9.16783 11.25 9.75 11.25C10.3322 11.25 10.9063 11.1145 11.4271 10.8541C11.9478 10.5937 12.4007 10.2157 12.75 9.75C13.0993 10.2157 13.5522 10.5937 14.0729 10.8541C14.5937 11.1145 15.1678 11.25 15.75 11.25C16.0019 11.2499 16.2531 11.2248 16.5 11.175V16.5ZM16.9622 9.39375C16.9019 9.41914 16.8452 9.45223 16.7934 9.49219C16.4506 9.67164 16.0673 9.75964 15.6805 9.74769C15.2937 9.73574 14.9166 9.62423 14.5855 9.42395C14.2544 9.22367 13.9805 8.94138 13.7904 8.60436C13.6002 8.26733 13.5002 7.88696 13.5 7.5V6.75H18V7.5C17.9997 7.87736 17.9045 8.24859 17.7231 8.57952C17.5418 8.91045 17.2801 9.19044 16.9622 9.39375Z" fill="black"/>
</svg>
