<svg width="309" height="170" viewBox="0 0 309 170" fill="none" xmlns="http://www.w3.org/2000/svg">
<rect width="307.605" height="169.096" transform="translate(0.596313 0.351318)" fill="#FAFAFA"/>
<path d="M183.062 55.4301L169.458 39.8829C169.276 39.6752 169.052 39.5086 168.801 39.3942C168.549 39.2799 168.277 39.2204 168 39.2197H140.793C140.517 39.2204 140.244 39.2799 139.993 39.3942C139.741 39.5086 139.517 39.6752 139.335 39.8829L125.732 55.4301C125.414 55.7924 125.243 56.2597 125.25 56.7413C125.258 57.2229 125.444 57.6845 125.773 58.0366L152.98 87.1876C153.162 87.3825 153.382 87.5379 153.627 87.6442C153.871 87.7505 154.135 87.8054 154.402 87.8054C154.668 87.8054 154.932 87.7505 155.176 87.6442C155.421 87.5379 155.641 87.3825 155.823 87.1876L183.03 58.0366C183.358 57.6833 183.542 57.221 183.548 56.7394C183.554 56.2578 183.38 55.7912 183.062 55.4301ZM177.321 54.7669H167.029L158.283 43.1065H167.119L177.321 54.7669ZM141.42 58.6537L148.739 76.9532L131.661 58.6537H141.42ZM163.186 58.6537L154.397 80.6286L145.608 58.6537H163.186ZM146.623 54.7669L154.397 44.4013L162.17 54.7669H146.623ZM167.374 58.6537H177.132L160.054 76.9532L167.374 58.6537ZM141.675 43.1065H150.51L141.765 54.7669H131.472L141.675 43.1065Z" fill="black"/>
<path d="M74.6175 105.371L68.5307 121.579H65.4523L59.3422 105.371H62.1873L66.9915 118.851L71.819 105.371H74.6175ZM86.6124 118.268H79.8259L78.6599 121.579H75.8847L81.6916 105.348H84.77L90.577 121.579H87.7784L86.6124 118.268ZM85.8661 116.099L83.2308 108.566L80.5722 116.099H85.8661ZM95.7371 105.371V115.702C95.7371 116.93 96.0558 117.855 96.6933 118.477C97.3463 119.099 98.248 119.41 99.3985 119.41C100.565 119.41 101.466 119.099 102.104 118.477C102.757 117.855 103.083 116.93 103.083 115.702V105.371H105.742V115.656C105.742 116.977 105.454 118.096 104.879 119.014C104.304 119.931 103.534 120.615 102.57 121.066C101.606 121.517 100.541 121.742 99.3752 121.742C98.2091 121.742 97.1442 121.517 96.1802 121.066C95.2318 120.615 94.4778 119.931 93.9181 119.014C93.3584 118.096 93.0785 116.977 93.0785 115.656V105.371H95.7371ZM111.862 119.434H117.342V121.579H109.203V105.371H111.862V119.434ZM130.037 105.371V107.54H125.723V121.579H123.064V107.54H118.726V105.371H130.037ZM147.206 121.579L143.475 115.096H141.446V121.579H138.787V105.371H144.385C145.628 105.371 146.678 105.589 147.533 106.024C148.404 106.459 149.049 107.042 149.469 107.773C149.904 108.504 150.122 109.32 150.122 110.222C150.122 111.279 149.811 112.243 149.189 113.114C148.582 113.969 147.642 114.552 146.367 114.863L150.378 121.579H147.206ZM141.446 112.974H144.385C145.38 112.974 146.126 112.725 146.623 112.227C147.136 111.73 147.393 111.061 147.393 110.222C147.393 109.382 147.144 108.729 146.647 108.263C146.149 107.781 145.395 107.54 144.385 107.54H141.446V112.974ZM156.181 107.516V112.274H161.778V114.443H156.181V119.41H162.478V121.579H153.523V105.348H162.478V107.516H156.181ZM186.858 105.371L182.054 121.579H179.046L175.641 109.312L172.026 121.579L169.041 121.602L164.447 105.371H167.268L170.627 118.571L174.265 105.371H177.25L180.631 118.501L184.013 105.371H186.858ZM198.822 118.268H192.036L190.87 121.579H188.095L193.902 105.348H196.98L202.787 121.579H199.988L198.822 118.268ZM198.076 116.099L195.441 108.566L192.782 116.099H198.076ZM213.731 121.579L209.999 115.096H207.97V121.579H205.312V105.371H210.909C212.153 105.371 213.202 105.589 214.057 106.024C214.928 106.459 215.573 107.042 215.993 107.773C216.428 108.504 216.646 109.32 216.646 110.222C216.646 111.279 216.335 112.243 215.713 113.114C215.107 113.969 214.166 114.552 212.891 114.863L216.902 121.579H213.731ZM207.97 112.974H210.909C211.904 112.974 212.65 112.725 213.148 112.227C213.661 111.73 213.917 111.061 213.917 110.222C213.917 109.382 213.669 108.729 213.171 108.263C212.674 107.781 211.919 107.54 210.909 107.54H207.97V112.974ZM225.341 105.371C227.067 105.371 228.575 105.705 229.865 106.374C231.171 107.027 232.174 107.975 232.874 109.219C233.589 110.447 233.946 111.885 233.946 113.533C233.946 115.181 233.589 116.612 232.874 117.824C232.174 119.037 231.171 119.97 229.865 120.623C228.575 121.26 227.067 121.579 225.341 121.579H220.047V105.371H225.341ZM225.341 119.41C227.238 119.41 228.691 118.897 229.702 117.871C230.712 116.845 231.218 115.399 231.218 113.533C231.218 111.652 230.712 110.183 229.702 109.126C228.691 108.068 227.238 107.54 225.341 107.54H222.706V119.41H225.341ZM241.922 121.742C240.833 121.742 239.854 121.556 238.983 121.183C238.113 120.794 237.429 120.25 236.931 119.55C236.434 118.851 236.185 118.034 236.185 117.101H239.03C239.092 117.801 239.364 118.376 239.846 118.827C240.344 119.278 241.036 119.504 241.922 119.504C242.839 119.504 243.554 119.286 244.067 118.851C244.58 118.4 244.837 117.824 244.837 117.125C244.837 116.581 244.674 116.138 244.347 115.795C244.036 115.453 243.64 115.189 243.158 115.003C242.691 114.816 242.038 114.614 241.199 114.396C240.142 114.116 239.279 113.836 238.61 113.557C237.957 113.261 237.397 112.81 236.931 112.204C236.465 111.598 236.231 110.789 236.231 109.779C236.231 108.846 236.465 108.03 236.931 107.33C237.397 106.63 238.05 106.094 238.89 105.721C239.73 105.348 240.701 105.161 241.805 105.161C243.375 105.161 244.658 105.558 245.653 106.35C246.664 107.128 247.223 108.201 247.332 109.569H244.394C244.347 108.978 244.067 108.473 243.554 108.053C243.041 107.633 242.365 107.423 241.525 107.423C240.764 107.423 240.142 107.618 239.66 108.006C239.178 108.395 238.937 108.955 238.937 109.685C238.937 110.183 239.084 110.595 239.38 110.921C239.691 111.232 240.079 111.481 240.546 111.668C241.012 111.854 241.65 112.056 242.458 112.274C243.531 112.569 244.402 112.865 245.07 113.16C245.754 113.456 246.329 113.914 246.796 114.536C247.278 115.142 247.519 115.959 247.519 116.985C247.519 117.809 247.293 118.586 246.843 119.317C246.407 120.048 245.762 120.638 244.907 121.089C244.067 121.525 243.072 121.742 241.922 121.742Z" fill="black"/>
</svg>
