<svg width="309" height="170" viewBox="0 0 309 170" fill="none" xmlns="http://www.w3.org/2000/svg">
<rect width="307.605" height="169.096" transform="translate(0.798157 0.351318)" fill="#FAFAFA"/>
<path d="M183.264 55.4301L169.66 39.8829C169.478 39.6752 169.254 39.5086 169.003 39.3942C168.751 39.2799 168.478 39.2204 168.202 39.2197H140.995C140.719 39.2204 140.446 39.2799 140.195 39.3942C139.943 39.5086 139.719 39.6752 139.537 39.8829L125.933 55.4301C125.616 55.7924 125.445 56.2597 125.452 56.7413C125.46 57.2229 125.646 57.6845 125.975 58.0366L153.182 87.1876C153.364 87.3825 153.584 87.5379 153.829 87.6442C154.073 87.7505 154.337 87.8054 154.603 87.8054C154.87 87.8054 155.134 87.7505 155.378 87.6442C155.623 87.5379 155.843 87.3825 156.025 87.1876L183.232 58.0366C183.559 57.6833 183.744 57.221 183.75 56.7394C183.756 56.2578 183.582 55.7912 183.264 55.4301ZM177.523 54.7669H167.231L158.485 43.1065H167.32L177.523 54.7669ZM141.622 58.6537L148.941 76.9532L131.863 58.6537H141.622ZM163.388 58.6537L154.599 80.6286L145.81 58.6537H163.388ZM146.825 54.7669L154.599 44.4013L162.372 54.7669H146.825ZM167.576 58.6537H177.334L160.256 76.9532L167.576 58.6537ZM141.877 43.1065H150.712L141.966 54.7669H131.674L141.877 43.1065Z" fill="black"/>
<path d="M74.8193 105.371L68.7325 121.579H65.6542L59.544 105.371H62.3892L67.1933 118.851L72.0208 105.371H74.8193ZM86.8142 118.268H80.0278L78.8617 121.579H76.0865L81.8935 105.348H84.9719L90.7788 121.579H87.9803L86.8142 118.268ZM86.0679 116.099L83.4327 108.566L80.7741 116.099H86.0679ZM95.939 105.371V115.702C95.939 116.93 96.2577 117.855 96.8951 118.477C97.5481 119.099 98.4499 119.41 99.6004 119.41C100.766 119.41 101.668 119.099 102.306 118.477C102.959 117.855 103.285 116.93 103.285 115.702V105.371H105.944V115.656C105.944 116.977 105.656 118.096 105.081 119.014C104.506 119.931 103.736 120.615 102.772 121.066C101.808 121.517 100.743 121.742 99.5771 121.742C98.411 121.742 97.346 121.517 96.3821 121.066C95.4337 120.615 94.6796 119.931 94.1199 119.014C93.5602 118.096 93.2804 116.977 93.2804 115.656V105.371H95.939ZM112.064 119.434H117.544V121.579H109.405V105.371H112.064V119.434ZM130.239 105.371V107.54H125.924V121.579H123.266V107.54H118.928V105.371H130.239ZM147.408 121.579L143.677 115.096H141.648V121.579H138.989V105.371H144.586C145.83 105.371 146.88 105.589 147.735 106.024C148.605 106.459 149.251 107.042 149.67 107.773C150.106 108.504 150.323 109.32 150.323 110.222C150.323 111.279 150.012 112.243 149.391 113.114C148.784 113.969 147.844 114.552 146.569 114.863L150.58 121.579H147.408ZM141.648 112.974H144.586C145.581 112.974 146.328 112.725 146.825 112.227C147.338 111.73 147.595 111.061 147.595 110.222C147.595 109.382 147.346 108.729 146.849 108.263C146.351 107.781 145.597 107.54 144.586 107.54H141.648V112.974ZM156.383 107.516V112.274H161.98V114.443H156.383V119.41H162.68V121.579H153.724V105.348H162.68V107.516H156.383ZM187.06 105.371L182.256 121.579H179.247L175.843 109.312L172.228 121.579L169.243 121.602L164.648 105.371H167.47L170.828 118.571L174.467 105.371H177.452L180.833 118.501L184.215 105.371H187.06ZM199.024 118.268H192.238L191.072 121.579H188.297L194.103 105.348H197.182L202.989 121.579H200.19L199.024 118.268ZM198.278 116.099L195.643 108.566L192.984 116.099H198.278ZM213.933 121.579L210.201 115.096H208.172V121.579H205.514V105.371H211.111C212.355 105.371 213.404 105.589 214.259 106.024C215.13 106.459 215.775 107.042 216.195 107.773C216.63 108.504 216.848 109.32 216.848 110.222C216.848 111.279 216.537 112.243 215.915 113.114C215.309 113.969 214.368 114.552 213.093 114.863L217.104 121.579H213.933ZM208.172 112.974H211.111C212.106 112.974 212.852 112.725 213.35 112.227C213.863 111.73 214.119 111.061 214.119 110.222C214.119 109.382 213.87 108.729 213.373 108.263C212.875 107.781 212.121 107.54 211.111 107.54H208.172V112.974ZM225.543 105.371C227.268 105.371 228.777 105.705 230.067 106.374C231.373 107.027 232.376 107.975 233.075 109.219C233.791 110.447 234.148 111.885 234.148 113.533C234.148 115.181 233.791 116.612 233.075 117.824C232.376 119.037 231.373 119.97 230.067 120.623C228.777 121.26 227.268 121.579 225.543 121.579H220.249V105.371H225.543ZM225.543 119.41C227.439 119.41 228.893 118.897 229.904 117.871C230.914 116.845 231.42 115.399 231.42 113.533C231.42 111.652 230.914 110.183 229.904 109.126C228.893 108.068 227.439 107.54 225.543 107.54H222.907V119.41H225.543ZM242.124 121.742C241.035 121.742 240.056 121.556 239.185 121.183C238.315 120.794 237.63 120.25 237.133 119.55C236.635 118.851 236.387 118.034 236.387 117.101H239.232C239.294 117.801 239.566 118.376 240.048 118.827C240.546 119.278 241.237 119.504 242.124 119.504C243.041 119.504 243.756 119.286 244.269 118.851C244.782 118.4 245.039 117.824 245.039 117.125C245.039 116.581 244.876 116.138 244.549 115.795C244.238 115.453 243.842 115.189 243.36 115.003C242.893 114.816 242.24 114.614 241.401 114.396C240.343 114.116 239.481 113.836 238.812 113.557C238.159 113.261 237.599 112.81 237.133 112.204C236.667 111.598 236.433 110.789 236.433 109.779C236.433 108.846 236.667 108.03 237.133 107.33C237.599 106.63 238.252 106.094 239.092 105.721C239.931 105.348 240.903 105.161 242.007 105.161C243.577 105.161 244.86 105.558 245.855 106.35C246.866 107.128 247.425 108.201 247.534 109.569H244.596C244.549 108.978 244.269 108.473 243.756 108.053C243.243 107.633 242.567 107.423 241.727 107.423C240.965 107.423 240.343 107.618 239.861 108.006C239.38 108.395 239.139 108.955 239.139 109.685C239.139 110.183 239.286 110.595 239.582 110.921C239.893 111.232 240.281 111.481 240.748 111.668C241.214 111.854 241.852 112.056 242.66 112.274C243.733 112.569 244.603 112.865 245.272 113.16C245.956 113.456 246.531 113.914 246.998 114.536C247.48 115.142 247.721 115.959 247.721 116.985C247.721 117.809 247.495 118.586 247.044 119.317C246.609 120.048 245.964 120.638 245.109 121.089C244.269 121.525 243.274 121.742 242.124 121.742Z" fill="black"/>
</svg>
