<svg width="308" height="170" viewBox="0 0 308 170" fill="none" xmlns="http://www.w3.org/2000/svg">
<rect width="307.605" height="169.096" transform="translate(0 0.351318)" fill="#FAFAFA"/>
<path d="M182.465 55.4301L168.862 39.8829C168.68 39.6752 168.456 39.5086 168.204 39.3942C167.953 39.2799 167.68 39.2204 167.404 39.2197H140.197C139.92 39.2204 139.648 39.2799 139.396 39.3942C139.145 39.5086 138.921 39.6752 138.739 39.8829L125.135 55.4301C124.818 55.7924 124.646 56.2597 124.654 56.7413C124.662 57.2229 124.848 57.6845 125.177 58.0366L152.384 87.1876C152.566 87.3825 152.786 87.5379 153.03 87.6442C153.275 87.7505 153.539 87.8054 153.805 87.8054C154.072 87.8054 154.336 87.7505 154.58 87.6442C154.824 87.5379 155.044 87.3825 155.226 87.1876L182.434 58.0366C182.761 57.6833 182.946 57.221 182.951 56.7394C182.957 56.2578 182.784 55.7912 182.465 55.4301ZM176.725 54.7669H166.432L157.687 43.1065H166.522L176.725 54.7669ZM140.823 58.6537L148.143 76.9532L131.065 58.6537H140.823ZM162.589 58.6537L153.8 80.6286L145.011 58.6537H162.589ZM146.027 54.7669L153.8 44.4013L161.574 54.7669H146.027ZM166.777 58.6537H176.536L159.458 76.9532L166.777 58.6537ZM141.078 43.1065H149.914L141.168 54.7669H130.876L141.078 43.1065Z" fill="black"/>
<path d="M74.0212 105.371L67.9343 121.579H64.856L58.7458 105.371H61.591L66.3952 118.851L71.2226 105.371H74.0212ZM86.016 118.268H79.2296L78.0635 121.579H75.2883L81.0953 105.348H84.1737L89.9806 121.579H87.1821L86.016 118.268ZM85.2698 116.099L82.6345 108.566L79.9759 116.099H85.2698ZM95.1408 105.371V115.702C95.1408 116.93 95.4595 117.855 96.0969 118.477C96.7499 119.099 97.6517 119.41 98.8022 119.41C99.9683 119.41 100.87 119.099 101.507 118.477C102.16 117.855 102.487 116.93 102.487 115.702V105.371H105.146V115.656C105.146 116.977 104.858 118.096 104.283 119.014C103.707 119.931 102.938 120.615 101.974 121.066C101.01 121.517 99.9449 121.742 98.7789 121.742C97.6128 121.742 96.5478 121.517 95.5839 121.066C94.6355 120.615 93.8814 119.931 93.3217 119.014C92.762 118.096 92.4822 116.977 92.4822 115.656V105.371H95.1408ZM111.266 119.434H116.746V121.579H108.607V105.371H111.266V119.434ZM129.441 105.371V107.54H125.126V121.579H122.468V107.54H118.13V105.371H129.441ZM146.61 121.579L142.879 115.096H140.85V121.579H138.191V105.371H143.788C145.032 105.371 146.081 105.589 146.937 106.024C147.807 106.459 148.452 107.042 148.872 107.773C149.308 108.504 149.525 109.32 149.525 110.222C149.525 111.279 149.214 112.243 148.592 113.114C147.986 113.969 147.045 114.552 145.771 114.863L149.782 121.579H146.61ZM140.85 112.974H143.788C144.783 112.974 145.53 112.725 146.027 112.227C146.54 111.73 146.797 111.061 146.797 110.222C146.797 109.382 146.548 108.729 146.05 108.263C145.553 107.781 144.799 107.54 143.788 107.54H140.85V112.974ZM155.585 107.516V112.274H161.182V114.443H155.585V119.41H161.882V121.579H152.926V105.348H161.882V107.516H155.585ZM186.262 105.371L181.458 121.579H178.449L175.044 109.312L171.43 121.579L168.444 121.602L163.85 105.371H166.672L170.03 118.571L173.668 105.371H176.653L180.035 118.501L183.417 105.371H186.262ZM198.226 118.268H191.44L190.274 121.579H187.498L193.305 105.348H196.384L202.191 121.579H199.392L198.226 118.268ZM197.48 116.099L194.844 108.566L192.186 116.099H197.48ZM213.134 121.579L209.403 115.096H207.374V121.579H204.716V105.371H210.313C211.556 105.371 212.606 105.589 213.461 106.024C214.332 106.459 214.977 107.042 215.397 107.773C215.832 108.504 216.05 109.32 216.05 110.222C216.05 111.279 215.739 112.243 215.117 113.114C214.51 113.969 213.57 114.552 212.295 114.863L216.306 121.579H213.134ZM207.374 112.974H210.313C211.308 112.974 212.054 112.725 212.551 112.227C213.064 111.73 213.321 111.061 213.321 110.222C213.321 109.382 213.072 108.729 212.575 108.263C212.077 107.781 211.323 107.54 210.313 107.54H207.374V112.974ZM224.745 105.371C226.47 105.371 227.978 105.705 229.269 106.374C230.575 107.027 231.578 107.975 232.277 109.219C232.992 110.447 233.35 111.885 233.35 113.533C233.35 115.181 232.992 116.612 232.277 117.824C231.578 119.037 230.575 119.97 229.269 120.623C227.978 121.26 226.47 121.579 224.745 121.579H219.451V105.371H224.745ZM224.745 119.41C226.641 119.41 228.095 118.897 229.106 117.871C230.116 116.845 230.621 115.399 230.621 113.533C230.621 111.652 230.116 110.183 229.106 109.126C228.095 108.068 226.641 107.54 224.745 107.54H222.109V119.41H224.745ZM241.325 121.742C240.237 121.742 239.258 121.556 238.387 121.183C237.516 120.794 236.832 120.25 236.335 119.55C235.837 118.851 235.588 118.034 235.588 117.101H238.434C238.496 117.801 238.768 118.376 239.25 118.827C239.747 119.278 240.439 119.504 241.325 119.504C242.243 119.504 242.958 119.286 243.471 118.851C243.984 118.4 244.241 117.824 244.241 117.125C244.241 116.581 244.077 116.138 243.751 115.795C243.44 115.453 243.043 115.189 242.561 115.003C242.095 114.816 241.442 114.614 240.603 114.396C239.545 114.116 238.682 113.836 238.014 113.557C237.361 113.261 236.801 112.81 236.335 112.204C235.868 111.598 235.635 110.789 235.635 109.779C235.635 108.846 235.868 108.03 236.335 107.33C236.801 106.63 237.454 106.094 238.294 105.721C239.133 105.348 240.105 105.161 241.209 105.161C242.779 105.161 244.062 105.558 245.057 106.35C246.067 107.128 246.627 108.201 246.736 109.569H243.797C243.751 108.978 243.471 108.473 242.958 108.053C242.445 107.633 241.769 107.423 240.929 107.423C240.167 107.423 239.545 107.618 239.063 108.006C238.581 108.395 238.34 108.955 238.34 109.685C238.34 110.183 238.488 110.595 238.783 110.921C239.094 111.232 239.483 111.481 239.95 111.668C240.416 111.854 241.053 112.056 241.862 112.274C242.935 112.569 243.805 112.865 244.474 113.16C245.158 113.456 245.733 113.914 246.2 114.536C246.682 115.142 246.923 115.959 246.923 116.985C246.923 117.809 246.697 118.586 246.246 119.317C245.811 120.048 245.166 120.638 244.311 121.089C243.471 121.525 242.476 121.742 241.325 121.742Z" fill="black"/>
</svg>
