<svg width="308" height="170" viewBox="0 0 308 170" fill="none" xmlns="http://www.w3.org/2000/svg">
<rect width="307.605" height="169.096" transform="translate(0.39447 0.351318)" fill="#FAFAFA"/>
<path d="M182.86 55.4301L169.256 39.8829C169.074 39.6752 168.85 39.5086 168.599 39.3942C168.348 39.2799 168.075 39.2204 167.799 39.2197H140.591C140.315 39.2204 140.042 39.2799 139.791 39.3942C139.54 39.5086 139.315 39.6752 139.134 39.8829L125.53 55.4301C125.212 55.7924 125.041 56.2597 125.049 56.7413C125.056 57.2229 125.242 57.6845 125.571 58.0366L152.779 87.1876C152.96 87.3825 153.18 87.5379 153.425 87.6442C153.669 87.7505 153.933 87.8054 154.2 87.8054C154.466 87.8054 154.73 87.7505 154.975 87.6442C155.219 87.5379 155.439 87.3825 155.621 87.1876L182.828 58.0366C183.156 57.6833 183.34 57.221 183.346 56.7394C183.352 56.2578 183.179 55.7912 182.86 55.4301ZM177.12 54.7669H166.827L158.082 43.1065H166.917L177.12 54.7669ZM141.218 58.6537L148.537 76.9532L131.46 58.6537H141.218ZM162.984 58.6537L154.195 80.6286L145.406 58.6537H162.984ZM146.421 54.7669L154.195 44.4013L161.968 54.7669H146.421ZM167.172 58.6537H176.93L159.853 76.9532L167.172 58.6537ZM141.473 43.1065H150.308L141.563 54.7669H131.27L141.473 43.1065Z" fill="black"/>
<path d="M74.4157 105.371L68.3288 121.579H65.2505L59.1403 105.371H61.9855L66.7897 118.851L71.6171 105.371H74.4157ZM86.4105 118.268H79.6241L78.458 121.579H75.6828L81.4898 105.348H84.5682L90.3751 121.579H87.5766L86.4105 118.268ZM85.6643 116.099L83.029 108.566L80.3704 116.099H85.6643ZM95.5353 105.371V115.702C95.5353 116.93 95.854 117.855 96.4914 118.477C97.1444 119.099 98.0462 119.41 99.1967 119.41C100.363 119.41 101.265 119.099 101.902 118.477C102.555 117.855 102.881 116.93 102.881 115.702V105.371H105.54V115.656C105.54 116.977 105.252 118.096 104.677 119.014C104.102 119.931 103.332 120.615 102.368 121.066C101.404 121.517 100.339 121.742 99.1734 121.742C98.0073 121.742 96.9423 121.517 95.9784 121.066C95.03 120.615 94.2759 119.931 93.7162 119.014C93.1565 118.096 92.8767 116.977 92.8767 115.656V105.371H95.5353ZM111.66 119.434H117.141V121.579H109.002V105.371H111.66V119.434ZM129.835 105.371V107.54H125.521V121.579H122.862V107.54H118.524V105.371H129.835ZM147.005 121.579L143.273 115.096H141.244V121.579H138.586V105.371H144.183C145.427 105.371 146.476 105.589 147.331 106.024C148.202 106.459 148.847 107.042 149.267 107.773C149.702 108.504 149.92 109.32 149.92 110.222C149.92 111.279 149.609 112.243 148.987 113.114C148.381 113.969 147.44 114.552 146.165 114.863L150.176 121.579H147.005ZM141.244 112.974H144.183C145.178 112.974 145.924 112.725 146.422 112.227C146.935 111.73 147.191 111.061 147.191 110.222C147.191 109.382 146.942 108.729 146.445 108.263C145.947 107.781 145.193 107.54 144.183 107.54H141.244V112.974ZM155.979 107.516V112.274H161.576V114.443H155.979V119.41H162.276V121.579H153.321V105.348H162.276V107.516H155.979ZM186.656 105.371L181.852 121.579H178.844L175.439 109.312L171.824 121.579L168.839 121.602L164.245 105.371H167.067L170.425 118.571L174.063 105.371H177.048L180.43 118.501L183.811 105.371H186.656ZM198.621 118.268H191.834L190.668 121.579H187.893L193.7 105.348H196.778L202.585 121.579H199.787L198.621 118.268ZM197.874 116.099L195.239 108.566L192.58 116.099H197.874ZM213.529 121.579L209.798 115.096H207.769V121.579H205.11V105.371H210.707C211.951 105.371 213 105.589 213.855 106.024C214.726 106.459 215.371 107.042 215.791 107.773C216.226 108.504 216.444 109.32 216.444 110.222C216.444 111.279 216.133 112.243 215.511 113.114C214.905 113.969 213.964 114.552 212.689 114.863L216.701 121.579H213.529ZM207.769 112.974H210.707C211.702 112.974 212.448 112.725 212.946 112.227C213.459 111.73 213.716 111.061 213.716 110.222C213.716 109.382 213.467 108.729 212.969 108.263C212.472 107.781 211.718 107.54 210.707 107.54H207.769V112.974ZM225.139 105.371C226.865 105.371 228.373 105.705 229.663 106.374C230.969 107.027 231.972 107.975 232.672 109.219C233.387 110.447 233.744 111.885 233.744 113.533C233.744 115.181 233.387 116.612 232.672 117.824C231.972 119.037 230.969 119.97 229.663 120.623C228.373 121.26 226.865 121.579 225.139 121.579H219.845V105.371H225.139ZM225.139 119.41C227.036 119.41 228.489 118.897 229.5 117.871C230.511 116.845 231.016 115.399 231.016 113.533C231.016 111.652 230.511 110.183 229.5 109.126C228.489 108.068 227.036 107.54 225.139 107.54H222.504V119.41H225.139ZM241.72 121.742C240.632 121.742 239.652 121.556 238.781 121.183C237.911 120.794 237.227 120.25 236.729 119.55C236.232 118.851 235.983 118.034 235.983 117.101H238.828C238.89 117.801 239.162 118.376 239.644 118.827C240.142 119.278 240.834 119.504 241.72 119.504C242.637 119.504 243.352 119.286 243.865 118.851C244.379 118.4 244.635 117.824 244.635 117.125C244.635 116.581 244.472 116.138 244.145 115.795C243.834 115.453 243.438 115.189 242.956 115.003C242.49 114.816 241.837 114.614 240.997 114.396C239.94 114.116 239.077 113.836 238.408 113.557C237.755 113.261 237.196 112.81 236.729 112.204C236.263 111.598 236.03 110.789 236.03 109.779C236.03 108.846 236.263 108.03 236.729 107.33C237.196 106.63 237.849 106.094 238.688 105.721C239.528 105.348 240.499 105.161 241.603 105.161C243.174 105.161 244.456 105.558 245.451 106.35C246.462 107.128 247.022 108.201 247.13 109.569H244.192C244.145 108.978 243.865 108.473 243.352 108.053C242.839 107.633 242.163 107.423 241.323 107.423C240.562 107.423 239.94 107.618 239.458 108.006C238.976 108.395 238.735 108.955 238.735 109.685C238.735 110.183 238.883 110.595 239.178 110.921C239.489 111.232 239.878 111.481 240.344 111.668C240.81 111.854 241.448 112.056 242.256 112.274C243.329 112.569 244.2 112.865 244.868 113.16C245.552 113.456 246.128 113.914 246.594 114.536C247.076 115.142 247.317 115.959 247.317 116.985C247.317 117.809 247.092 118.586 246.641 119.317C246.205 120.048 245.56 120.638 244.705 121.089C243.865 121.525 242.87 121.742 241.72 121.742Z" fill="black"/>
</svg>
