<svg width="192" height="80" viewBox="0 0 192 80" fill="none" xmlns="http://www.w3.org/2000/svg">
<path d="M7.624 19.576V16.568H27.592V19.576L22.216 20.152C22.1733 22.7547 22.1307 25.4 22.088 28.088C22.088 30.7333 22.088 33.4 22.088 36.088V44.472C22.088 48.568 21.96 51.96 21.704 54.648C21.448 57.2933 20.9787 59.4693 20.296 61.176C19.6133 62.9253 18.6107 64.4613 17.288 65.784C14.6427 68.4293 11.4 69.752 7.56 69.752C6.10933 69.752 4.78667 69.4747 3.592 68.92C2.35467 68.408 1.48 67.4907 0.968 66.168C1.096 64.8453 1.58667 63.864 2.44 63.224C3.25067 62.584 4.25333 62.264 5.448 62.264C6.42933 62.264 7.32533 62.4773 8.136 62.904C8.94667 63.3307 9.82133 64.0133 10.76 64.952L12.168 66.424C12.936 65.4853 13.448 64.312 13.704 62.904C14.0027 61.496 14.152 59.7467 14.152 57.656C14.152 56.4187 14.1307 54.904 14.088 53.112C14.088 51.2773 14.0453 48.952 13.96 46.136C13.9173 43.2773 13.8747 39.7573 13.832 35.576C13.7893 31.352 13.7253 26.232 13.64 20.216L7.624 19.576ZM49.2955 60.088C46.9062 60.088 44.5382 59.7893 42.1915 59.192C39.8448 58.5947 37.8395 57.7627 36.1755 56.696L36.5595 47.48H41.4875L42.7675 55.224C43.7488 55.6507 44.7515 55.992 45.7755 56.248C46.7995 56.4613 47.9515 56.568 49.2315 56.568C51.8768 56.568 53.9462 55.9493 55.4395 54.712C56.9755 53.432 57.7435 51.7467 57.7435 49.656C57.7435 47.7787 57.2102 46.3067 56.1435 45.24C55.0768 44.1733 53.3702 43.1707 51.0235 42.232L48.3995 41.144C44.9008 39.6507 42.1062 37.8587 40.0155 35.768C37.9675 33.6773 36.9435 30.9467 36.9435 27.576C36.9435 25.0587 37.5835 22.904 38.8635 21.112C40.1435 19.2773 41.9142 17.8907 44.1755 16.952C46.4795 15.9707 49.1248 15.48 52.1115 15.48C54.3302 15.48 56.3995 15.7787 58.3195 16.376C60.2395 16.9733 61.9248 17.784 63.3755 18.808L62.9275 27.448H58.0635L56.7835 20.024C55.2902 19.3413 53.6902 19 51.9835 19C49.8502 19 48.0368 19.576 46.5435 20.728C45.0502 21.8373 44.3035 23.4373 44.3035 25.528C44.3035 27.3627 44.8795 28.856 46.0315 30.008C47.1835 31.16 48.8048 32.1627 50.8955 33.016L53.6475 34.168C57.8288 35.9173 60.7942 37.7947 62.5435 39.8C64.3355 41.8053 65.2315 44.3867 65.2315 47.544C65.2315 51.2987 63.8022 54.328 60.9435 56.632C58.1275 58.936 54.2448 60.088 49.2955 60.088ZM74.736 19.576V16.568H93.808V19.576L88.304 20.216C88.2613 22.8613 88.2187 25.528 88.176 28.216C88.176 30.904 88.176 33.6347 88.176 36.408V39.48L103.664 20.408L99.248 19.576V16.568H114.032V19.576L107.888 20.408L98.288 31.928L111.024 55.48L115.504 55.992V59H98.096V55.992L102.256 55.48L93.168 38.008L88.176 43.96C88.176 45.752 88.176 47.608 88.176 49.528C88.2187 51.448 88.2613 53.4107 88.304 55.416L93.424 55.992V59H74.736V55.992L80.112 55.416C80.1973 52.7707 80.24 50.0827 80.24 47.352C80.24 44.6213 80.24 41.8907 80.24 39.16V36.408C80.24 33.72 80.24 31.032 80.24 28.344C80.24 25.6133 80.1973 22.8827 80.112 20.152L74.736 19.576Z" fill="black"/>
<path d="M28.98 75H26.55C26.5233 74.96 26.51 74.9067 26.51 74.84C26.51 74.7667 26.5333 74.7 26.58 74.64L27.25 74.56V69.01H26.67C26.5633 69.01 26.51 68.9633 26.51 68.87C26.51 68.8233 26.5267 68.7433 26.56 68.63L26.58 68.55H29.07C29.49 68.55 29.8433 68.61 30.13 68.73C30.4233 68.85 30.6567 69.0067 30.83 69.2C31.01 69.3933 31.14 69.6067 31.22 69.84C31.3067 70.0667 31.35 70.29 31.35 70.51C31.35 70.73 31.3067 70.9567 31.22 71.19C31.14 71.4167 31.01 71.6267 30.83 71.82C30.6567 72.0133 30.4233 72.17 30.13 72.29C29.8433 72.41 29.49 72.47 29.07 72.47H27.81V74.54H28.89C28.9967 74.54 29.05 74.5867 29.05 74.68C29.05 74.7267 29.0333 74.8067 29 74.92L28.98 75ZM27.81 72.01H29.07C29.59 72.01 30 71.8767 30.3 71.61C30.6067 71.3367 30.76 70.97 30.76 70.51C30.76 70.05 30.6067 69.6867 30.3 69.42C30 69.1467 29.59 69.01 29.07 69.01H27.81V72.01ZM35.9341 74.63C36.4141 74.63 36.8307 74.5133 37.1841 74.28C37.5441 74.04 37.8207 73.7067 38.0141 73.28C38.2141 72.8467 38.3141 72.3433 38.3141 71.77C38.3141 71.1967 38.2141 70.6967 38.0141 70.27C37.8207 69.8433 37.5441 69.5133 37.1841 69.28C36.8307 69.04 36.4141 68.92 35.9341 68.92C35.4541 68.92 35.0341 69.04 34.6741 69.28C34.3207 69.5133 34.0441 69.8433 33.8441 70.27C33.6507 70.6967 33.5541 71.1967 33.5541 71.77C33.5541 72.35 33.6507 72.8533 33.8441 73.28C34.0441 73.7067 34.3207 74.04 34.6741 74.28C35.0341 74.5133 35.4541 74.63 35.9341 74.63ZM35.9341 75.1C35.3407 75.1 34.8207 74.9633 34.3741 74.69C33.9274 74.41 33.5807 74.0233 33.3341 73.53C33.0874 73.03 32.9641 72.4433 32.9641 71.77C32.9641 71.1033 33.0874 70.5233 33.3341 70.03C33.5807 69.53 33.9274 69.1433 34.3741 68.87C34.8207 68.59 35.3407 68.45 35.9341 68.45C36.5274 68.45 37.0474 68.59 37.4941 68.87C37.9407 69.1433 38.2874 69.53 38.5341 70.03C38.7807 70.5233 38.9041 71.1033 38.9041 71.77C38.9041 72.4433 38.7807 73.03 38.5341 73.53C38.2874 74.0233 37.9407 74.41 37.4941 74.69C37.0474 74.9633 36.5274 75.1 35.9341 75.1ZM46.3521 75.02L44.6921 69.58L43.0021 75.02C42.9354 75.0333 42.8621 75.04 42.7821 75.04C42.7021 75.04 42.6288 75.0333 42.5621 75.02L40.8121 69.01H40.2321C40.1254 69.01 40.0721 68.9633 40.0721 68.87C40.0721 68.8233 40.0888 68.7433 40.1221 68.63L40.1421 68.55H42.1021C42.1288 68.59 42.1421 68.6433 42.1421 68.71C42.1421 68.7833 42.1188 68.85 42.0721 68.91L41.4021 68.99L42.8021 73.98L44.5021 68.53C44.5688 68.5167 44.6421 68.51 44.7221 68.51C44.8021 68.51 44.8754 68.5167 44.9421 68.53L46.5921 74L48.0021 69.01H47.4221C47.3154 69.01 47.2621 68.9633 47.2621 68.87C47.2621 68.8233 47.2788 68.7433 47.3121 68.63L47.3321 68.55H49.2421C49.2688 68.59 49.2821 68.6433 49.2821 68.71C49.2821 68.7833 49.2588 68.85 49.2121 68.91L48.5421 68.99L46.7921 75.02C46.7254 75.0333 46.6521 75.04 46.5721 75.04C46.4921 75.04 46.4188 75.0333 46.3521 75.02ZM55.3383 75H50.6883C50.6616 74.96 50.6483 74.9067 50.6483 74.84C50.6483 74.7667 50.6716 74.7 50.7183 74.64L51.3883 74.56V69.01H50.8083C50.7016 69.01 50.6483 68.9633 50.6483 68.87C50.6483 68.8233 50.6649 68.7433 50.6983 68.63L50.7183 68.55H55.2383C55.3316 68.6233 55.4116 68.71 55.4783 68.81L55.4983 70.13C55.4583 70.1567 55.4049 70.17 55.3383 70.17C55.2649 70.17 55.1983 70.1467 55.1383 70.1L54.8883 69.01H51.9483V71.48H53.9483L54.0383 70.95C54.0583 70.83 54.1149 70.77 54.2083 70.77C54.2349 70.77 54.2883 70.7867 54.3683 70.82L54.4283 70.85V72.61C54.3883 72.6367 54.3349 72.65 54.2683 72.65C54.1949 72.65 54.1283 72.6267 54.0683 72.58L53.9483 71.93H51.9483V74.54H54.9883L55.2383 73.45C55.2983 73.4033 55.3649 73.38 55.4383 73.38C55.5049 73.38 55.5583 73.3933 55.5983 73.42L55.5783 74.74C55.5116 74.84 55.4316 74.9267 55.3383 75ZM61.1953 74.18L60.0953 72.27H58.7053V74.54H59.2853C59.392 74.54 59.4453 74.5867 59.4453 74.68C59.4453 74.7267 59.4286 74.8067 59.3953 74.92L59.3753 75H57.4453C57.4186 74.96 57.4053 74.9067 57.4053 74.84C57.4053 74.7667 57.4286 74.7 57.4753 74.64L58.1453 74.56V69.01H57.5653C57.4586 69.01 57.4053 68.9633 57.4053 68.87C57.4053 68.8233 57.422 68.7433 57.4553 68.63L57.4753 68.55H60.1053C60.4786 68.55 60.7953 68.61 61.0553 68.73C61.3153 68.8433 61.5253 68.9967 61.6853 69.19C61.8453 69.3767 61.962 69.58 62.0353 69.8C62.1086 70.0133 62.1453 70.2167 62.1453 70.41C62.1453 70.6367 62.0953 70.8767 61.9953 71.13C61.902 71.3767 61.7453 71.6 61.5253 71.8C61.3053 72 61.0186 72.1367 60.6653 72.21L61.7653 74.04C61.892 74.2533 62.0053 74.3967 62.1053 74.47C62.2053 74.5367 62.3386 74.57 62.5053 74.57C62.5586 74.57 62.6153 74.57 62.6753 74.57C62.742 74.5633 62.7986 74.5567 62.8453 74.55C62.8986 74.6433 62.9286 74.7667 62.9353 74.92C62.7086 75 62.4953 75.04 62.2953 75.04C62.082 75.04 61.8886 74.9733 61.7153 74.84C61.542 74.7 61.3686 74.48 61.1953 74.18ZM58.7053 71.81H60.1053C60.552 71.81 60.9053 71.6767 61.1653 71.41C61.4253 71.1367 61.5553 70.8033 61.5553 70.41C61.5553 70.0167 61.4253 69.6867 61.1653 69.42C60.9053 69.1467 60.552 69.01 60.1053 69.01H58.7053V71.81ZM69.0965 75H64.4465C64.4198 74.96 64.4065 74.9067 64.4065 74.84C64.4065 74.7667 64.4298 74.7 64.4765 74.64L65.1465 74.56V69.01H64.5665C64.4598 69.01 64.4065 68.9633 64.4065 68.87C64.4065 68.8233 64.4232 68.7433 64.4565 68.63L64.4765 68.55H68.9965C69.0898 68.6233 69.1698 68.71 69.2365 68.81L69.2565 70.13C69.2165 70.1567 69.1632 70.17 69.0965 70.17C69.0232 70.17 68.9565 70.1467 68.8965 70.1L68.6465 69.01H65.7065V71.48H67.7065L67.7965 70.95C67.8165 70.83 67.8732 70.77 67.9665 70.77C67.9932 70.77 68.0465 70.7867 68.1265 70.82L68.1865 70.85V72.61C68.1465 72.6367 68.0932 72.65 68.0265 72.65C67.9532 72.65 67.8865 72.6267 67.8265 72.58L67.7065 71.93H65.7065V74.54H68.7465L68.9965 73.45C69.0565 73.4033 69.1232 73.38 69.1965 73.38C69.2632 73.38 69.3165 73.3933 69.3565 73.42L69.3365 74.74C69.2698 74.84 69.1898 74.9267 69.0965 75ZM72.4635 74.54H73.9235C74.4235 74.54 74.8502 74.4267 75.2035 74.2C75.5568 73.9667 75.8268 73.6433 76.0135 73.23C76.2068 72.81 76.3035 72.3233 76.3035 71.77C76.3035 71.2167 76.2068 70.7333 76.0135 70.32C75.8268 69.9067 75.5568 69.5867 75.2035 69.36C74.8502 69.1267 74.4235 69.01 73.9235 69.01H72.4635V74.54ZM73.9235 75H71.2035C71.1768 74.96 71.1635 74.9067 71.1635 74.84C71.1635 74.7667 71.1868 74.7 71.2335 74.64L71.9035 74.56V69.01H71.3235C71.2168 69.01 71.1635 68.9633 71.1635 68.87C71.1635 68.8233 71.1802 68.7433 71.2135 68.63L71.2335 68.55H73.9235C74.5235 68.55 75.0435 68.68 75.4835 68.94C75.9302 69.2 76.2768 69.5733 76.5235 70.06C76.7702 70.54 76.8935 71.11 76.8935 71.77C76.8935 72.4367 76.7702 73.0133 76.5235 73.5C76.2768 73.98 75.9302 74.35 75.4835 74.61C75.0435 74.87 74.5235 75 73.9235 75ZM85.1218 75H82.0418C82.0151 74.96 82.0018 74.9067 82.0018 74.84C82.0018 74.7667 82.0251 74.7 82.0718 74.64L82.7418 74.56V69.01H82.1618C82.0551 69.01 82.0018 68.9633 82.0018 68.87C82.0018 68.8233 82.0185 68.7433 82.0518 68.63L82.0718 68.55H84.8418C85.2018 68.55 85.5185 68.62 85.7918 68.76C86.0718 68.8933 86.2885 69.0833 86.4418 69.33C86.6018 69.5767 86.6818 69.86 86.6818 70.18C86.6818 70.4867 86.5918 70.7667 86.4118 71.02C86.2318 71.2733 85.9885 71.4667 85.6818 71.6C86.1285 71.7 86.4751 71.8967 86.7218 72.19C86.9685 72.4767 87.0918 72.8367 87.0918 73.27C87.0918 73.61 87.0085 73.91 86.8418 74.17C86.6751 74.43 86.4451 74.6333 86.1518 74.78C85.8585 74.9267 85.5151 75 85.1218 75ZM83.3018 74.54H85.1218C85.5485 74.54 85.8851 74.4267 86.1318 74.2C86.3785 73.9733 86.5018 73.6667 86.5018 73.28C86.5018 72.8667 86.3685 72.53 86.1018 72.27C85.8351 72.01 85.4951 71.88 85.0818 71.88H83.3018V74.54ZM83.3018 71.43H84.8418C85.2085 71.43 85.5085 71.3133 85.7418 71.08C85.9751 70.8467 86.0918 70.5533 86.0918 70.2C86.0918 69.8467 85.9751 69.56 85.7418 69.34C85.5085 69.12 85.2085 69.01 84.8418 69.01H83.3018V71.43ZM92.1563 75H89.6263C89.5997 74.96 89.5863 74.9067 89.5863 74.84C89.5863 74.7667 89.6097 74.7 89.6563 74.64L90.6263 74.56V72.7L88.6063 69.01H88.0263C87.9197 69.01 87.8663 68.9633 87.8663 68.87C87.8663 68.8233 87.883 68.7433 87.9163 68.63L87.9363 68.55H89.9163C89.943 68.59 89.9563 68.6433 89.9563 68.71C89.9563 68.7833 89.933 68.85 89.8863 68.91L89.2163 68.99L90.9463 72.22L92.6563 69.01H92.0763C91.9697 69.01 91.9163 68.9633 91.9163 68.87C91.9163 68.8233 91.933 68.7433 91.9663 68.63L91.9863 68.55H93.9163C93.943 68.59 93.9563 68.6433 93.9563 68.71C93.9563 68.7833 93.933 68.85 93.8863 68.91L93.2163 68.99L91.1863 72.7V74.54H92.0663C92.173 74.54 92.2263 74.5867 92.2263 74.68C92.2263 74.7267 92.2097 74.8067 92.1763 74.92L92.1563 75ZM99.2238 73.16V69.01H98.5438C98.4372 69.01 98.3838 68.9633 98.3838 68.87C98.3838 68.8233 98.4005 68.7433 98.4338 68.63L98.4538 68.55H100.584C100.61 68.59 100.624 68.6433 100.624 68.71C100.624 68.7833 100.6 68.85 100.554 68.91L99.7838 68.99V72.99C99.7838 73.5433 99.7238 74.0233 99.6038 74.43C99.4905 74.83 99.2972 75.1867 99.0238 75.5C98.7505 75.82 98.3872 76.1267 97.9338 76.42C97.8138 76.32 97.7305 76.2033 97.6838 76.07C98.0772 75.77 98.3838 75.48 98.6038 75.2C98.8305 74.9267 98.9905 74.6267 99.0838 74.3C99.1772 73.9733 99.2238 73.5933 99.2238 73.16ZM107.815 75H105.865C105.838 74.96 105.825 74.9067 105.825 74.84C105.825 74.7667 105.848 74.7 105.895 74.64L106.565 74.56L105.925 72.9H103.205L102.585 74.54H103.165C103.271 74.54 103.325 74.5867 103.325 74.68C103.325 74.7267 103.308 74.8067 103.275 74.92L103.255 75H101.335C101.308 74.96 101.295 74.9067 101.295 74.84C101.295 74.7667 101.318 74.7 101.365 74.64L102.035 74.56L104.375 68.53C104.441 68.5167 104.515 68.51 104.595 68.51C104.675 68.51 104.748 68.5167 104.815 68.53L107.145 74.54H107.725C107.831 74.54 107.885 74.5867 107.885 74.68C107.885 74.7267 107.868 74.8067 107.835 74.92L107.815 75ZM105.755 72.45L104.565 69.31L103.375 72.45H105.755ZM116.814 75H114.884C114.857 74.96 114.844 74.9067 114.844 74.84C114.844 74.7667 114.867 74.7 114.914 74.64L115.584 74.56V69.43L113.274 74.2C113.207 74.2133 113.134 74.22 113.054 74.22C112.974 74.22 112.9 74.2133 112.834 74.2L110.524 69.55V74.54H111.104C111.21 74.54 111.264 74.5867 111.264 74.68C111.264 74.7267 111.247 74.8067 111.214 74.92L111.194 75H109.304C109.277 74.96 109.264 74.9067 109.264 74.84C109.264 74.7667 109.287 74.7 109.334 74.64L110.004 74.56V69.01H109.424C109.317 69.01 109.264 68.9633 109.264 68.87C109.264 68.8233 109.28 68.7433 109.314 68.63L109.334 68.55H110.624L113.084 73.49L115.484 68.55H116.844C116.87 68.59 116.884 68.6433 116.884 68.71C116.884 68.7833 116.86 68.85 116.814 68.91L116.144 68.99V74.54H116.724C116.83 74.54 116.884 74.5867 116.884 74.68C116.884 74.7267 116.867 74.8067 116.834 74.92L116.814 75ZM123.396 75H118.746C118.719 74.96 118.706 74.9067 118.706 74.84C118.706 74.7667 118.729 74.7 118.776 74.64L119.446 74.56V69.01H118.866C118.759 69.01 118.706 68.9633 118.706 68.87C118.706 68.8233 118.723 68.7433 118.756 68.63L118.776 68.55H123.296C123.389 68.6233 123.469 68.71 123.536 68.81L123.556 70.13C123.516 70.1567 123.463 70.17 123.396 70.17C123.323 70.17 123.256 70.1467 123.196 70.1L122.946 69.01H120.006V71.48H122.006L122.096 70.95C122.116 70.83 122.173 70.77 122.266 70.77C122.293 70.77 122.346 70.7867 122.426 70.82L122.486 70.85V72.61C122.446 72.6367 122.393 72.65 122.326 72.65C122.253 72.65 122.186 72.6267 122.126 72.58L122.006 71.93H120.006V74.54H123.046L123.296 73.45C123.356 73.4033 123.423 73.38 123.496 73.38C123.563 73.38 123.616 73.3933 123.656 73.42L123.636 74.74C123.569 74.84 123.489 74.9267 123.396 75ZM130.153 75H125.503C125.476 74.96 125.463 74.9067 125.463 74.84C125.463 74.7667 125.486 74.7 125.533 74.64L126.203 74.56V69.01H125.623C125.516 69.01 125.463 68.9633 125.463 68.87C125.463 68.8233 125.48 68.7433 125.513 68.63L125.533 68.55H130.053C130.146 68.6233 130.226 68.71 130.293 68.81L130.313 70.13C130.273 70.1567 130.22 70.17 130.153 70.17C130.08 70.17 130.013 70.1467 129.953 70.1L129.703 69.01H126.763V71.48H128.763L128.853 70.95C128.873 70.83 128.93 70.77 129.023 70.77C129.05 70.77 129.103 70.7867 129.183 70.82L129.243 70.85V72.61C129.203 72.6367 129.15 72.65 129.083 72.65C129.01 72.65 128.943 72.6267 128.883 72.58L128.763 71.93H126.763V74.54H129.803L130.053 73.45C130.113 73.4033 130.18 73.38 130.253 73.38C130.32 73.38 130.373 73.3933 130.413 73.42L130.393 74.74C130.326 74.84 130.246 74.9267 130.153 75ZM136.66 75H132.26C132.233 74.96 132.22 74.9067 132.22 74.84C132.22 74.7667 132.243 74.7 132.29 74.64L132.96 74.56V69.01H132.38C132.273 69.01 132.22 68.9633 132.22 68.87C132.22 68.8233 132.237 68.7433 132.27 68.63L132.29 68.55H134.32C134.347 68.59 134.36 68.6433 134.36 68.71C134.36 68.7833 134.337 68.85 134.29 68.91L133.52 68.99V74.54H136.31L136.56 73.4C136.62 73.3533 136.687 73.33 136.76 73.33C136.827 73.33 136.88 73.3433 136.92 73.37L136.9 74.74C136.833 74.84 136.753 74.9267 136.66 75ZM146.488 74.38V72.31H145.408C145.301 72.31 145.248 72.2633 145.248 72.17C145.248 72.1233 145.265 72.0433 145.298 71.93L145.318 71.85H147.698C147.725 71.89 147.738 71.9433 147.738 72.01C147.738 72.0833 147.715 72.15 147.668 72.21L147.048 72.29V74.42C147.028 74.4667 147.001 74.5167 146.968 74.57C146.935 74.6233 146.898 74.6733 146.858 74.72C146.611 74.8333 146.311 74.9267 145.958 75C145.611 75.0667 145.271 75.1 144.938 75.1C144.298 75.1 143.745 74.9667 143.278 74.7C142.811 74.4267 142.451 74.0433 142.198 73.55C141.945 73.05 141.818 72.46 141.818 71.78C141.818 71.1067 141.945 70.52 142.198 70.02C142.458 69.52 142.818 69.1333 143.278 68.86C143.745 68.5867 144.295 68.45 144.928 68.45C145.201 68.45 145.495 68.4833 145.808 68.55C146.121 68.6167 146.411 68.71 146.678 68.83C146.718 68.8767 146.755 68.9267 146.788 68.98C146.821 69.0333 146.848 69.0833 146.868 69.13L146.888 70.36C146.848 70.3867 146.795 70.4 146.728 70.4C146.655 70.4 146.588 70.3767 146.528 70.33L146.258 69.18C146.025 69.0867 145.801 69.02 145.588 68.98C145.381 68.94 145.161 68.92 144.928 68.92C144.415 68.92 143.968 69.0367 143.588 69.27C143.208 69.5033 142.915 69.8367 142.708 70.27C142.508 70.6967 142.408 71.2033 142.408 71.79C142.408 72.37 142.511 72.8733 142.718 73.3C142.931 73.7267 143.231 74.0567 143.618 74.29C144.005 74.5167 144.461 74.63 144.988 74.63C145.228 74.63 145.491 74.6067 145.778 74.56C146.071 74.5067 146.308 74.4467 146.488 74.38ZM153.088 74.18L151.988 72.27H150.598V74.54H151.178C151.285 74.54 151.338 74.5867 151.338 74.68C151.338 74.7267 151.321 74.8067 151.288 74.92L151.268 75H149.338C149.311 74.96 149.298 74.9067 149.298 74.84C149.298 74.7667 149.321 74.7 149.368 74.64L150.038 74.56V69.01H149.458C149.351 69.01 149.298 68.9633 149.298 68.87C149.298 68.8233 149.315 68.7433 149.348 68.63L149.368 68.55H151.998C152.371 68.55 152.688 68.61 152.948 68.73C153.208 68.8433 153.418 68.9967 153.578 69.19C153.738 69.3767 153.855 69.58 153.928 69.8C154.001 70.0133 154.038 70.2167 154.038 70.41C154.038 70.6367 153.988 70.8767 153.888 71.13C153.795 71.3767 153.638 71.6 153.418 71.8C153.198 72 152.911 72.1367 152.558 72.21L153.658 74.04C153.785 74.2533 153.898 74.3967 153.998 74.47C154.098 74.5367 154.231 74.57 154.398 74.57C154.451 74.57 154.508 74.57 154.568 74.57C154.635 74.5633 154.691 74.5567 154.738 74.55C154.791 74.6433 154.821 74.7667 154.828 74.92C154.601 75 154.388 75.04 154.188 75.04C153.975 75.04 153.781 74.9733 153.608 74.84C153.435 74.7 153.261 74.48 153.088 74.18ZM150.598 71.81H151.998C152.445 71.81 152.798 71.6767 153.058 71.41C153.318 71.1367 153.448 70.8033 153.448 70.41C153.448 70.0167 153.318 69.6867 153.058 69.42C152.798 69.1467 152.445 69.01 151.998 69.01H150.598V71.81ZM159.064 74.63C159.544 74.63 159.96 74.5133 160.314 74.28C160.674 74.04 160.95 73.7067 161.144 73.28C161.344 72.8467 161.444 72.3433 161.444 71.77C161.444 71.1967 161.344 70.6967 161.144 70.27C160.95 69.8433 160.674 69.5133 160.314 69.28C159.96 69.04 159.544 68.92 159.064 68.92C158.584 68.92 158.164 69.04 157.804 69.28C157.45 69.5133 157.174 69.8433 156.974 70.27C156.78 70.6967 156.684 71.1967 156.684 71.77C156.684 72.35 156.78 72.8533 156.974 73.28C157.174 73.7067 157.45 74.04 157.804 74.28C158.164 74.5133 158.584 74.63 159.064 74.63ZM159.064 75.1C158.47 75.1 157.95 74.9633 157.504 74.69C157.057 74.41 156.71 74.0233 156.464 73.53C156.217 73.03 156.094 72.4433 156.094 71.77C156.094 71.1033 156.217 70.5233 156.464 70.03C156.71 69.53 157.057 69.1433 157.504 68.87C157.95 68.59 158.47 68.45 159.064 68.45C159.657 68.45 160.177 68.59 160.624 68.87C161.07 69.1433 161.417 69.53 161.664 70.03C161.91 70.5233 162.034 71.1033 162.034 71.77C162.034 72.4433 161.91 73.03 161.664 73.53C161.417 74.0233 161.07 74.41 160.624 74.69C160.177 74.9633 159.657 75.1 159.064 75.1ZM168.539 72.79V69.01H167.959C167.853 69.01 167.799 68.9633 167.799 68.87C167.799 68.8233 167.816 68.7433 167.849 68.63L167.869 68.55H169.769C169.796 68.59 169.809 68.6433 169.809 68.71C169.809 68.7833 169.786 68.85 169.739 68.91L169.069 68.99V72.79C169.069 73.2967 168.966 73.7233 168.759 74.07C168.553 74.41 168.269 74.6667 167.909 74.84C167.556 75.0133 167.163 75.1 166.729 75.1C166.296 75.1 165.899 75.0133 165.539 74.84C165.186 74.6667 164.906 74.41 164.699 74.07C164.493 73.7233 164.389 73.2967 164.389 72.79V69.01H163.809C163.703 69.01 163.649 68.9633 163.649 68.87C163.649 68.8233 163.666 68.7433 163.699 68.63L163.719 68.55H165.649C165.676 68.59 165.689 68.6433 165.689 68.71C165.689 68.7833 165.666 68.85 165.619 68.91L164.949 68.99V72.79C164.949 73.3167 165.099 73.7567 165.399 74.11C165.706 74.4567 166.149 74.63 166.729 74.63C167.336 74.63 167.789 74.4567 168.089 74.11C168.389 73.7567 168.539 73.3167 168.539 72.79ZM174.002 75H171.572C171.545 74.96 171.532 74.9067 171.532 74.84C171.532 74.7667 171.555 74.7 171.602 74.64L172.272 74.56V69.01H171.692C171.585 69.01 171.532 68.9633 171.532 68.87C171.532 68.8233 171.549 68.7433 171.582 68.63L171.602 68.55H174.092C174.512 68.55 174.865 68.61 175.152 68.73C175.445 68.85 175.679 69.0067 175.852 69.2C176.032 69.3933 176.162 69.6067 176.242 69.84C176.329 70.0667 176.372 70.29 176.372 70.51C176.372 70.73 176.329 70.9567 176.242 71.19C176.162 71.4167 176.032 71.6267 175.852 71.82C175.679 72.0133 175.445 72.17 175.152 72.29C174.865 72.41 174.512 72.47 174.092 72.47H172.832V74.54H173.912C174.019 74.54 174.072 74.5867 174.072 74.68C174.072 74.7267 174.055 74.8067 174.022 74.92L174.002 75ZM172.832 72.01H174.092C174.612 72.01 175.022 71.8767 175.322 71.61C175.629 71.3367 175.782 70.97 175.782 70.51C175.782 70.05 175.629 69.6867 175.322 69.42C175.022 69.1467 174.612 69.01 174.092 69.01H172.832V72.01ZM187.366 75H185.416C185.389 74.96 185.376 74.9067 185.376 74.84C185.376 74.7667 185.399 74.7 185.446 74.64L186.116 74.56L185.476 72.9H182.756L182.136 74.54H182.716C182.823 74.54 182.876 74.5867 182.876 74.68C182.876 74.7267 182.859 74.8067 182.826 74.92L182.806 75H180.886C180.859 74.96 180.846 74.9067 180.846 74.84C180.846 74.7667 180.869 74.7 180.916 74.64L181.586 74.56L183.926 68.53C183.993 68.5167 184.066 68.51 184.146 68.51C184.226 68.51 184.299 68.5167 184.366 68.53L186.696 74.54H187.276C187.383 74.54 187.436 74.5867 187.436 74.68C187.436 74.7267 187.419 74.8067 187.386 74.92L187.366 75ZM185.306 72.45L184.116 69.31L182.926 72.45H185.306ZM190.885 75H188.755C188.728 74.96 188.715 74.9067 188.715 74.84C188.715 74.7667 188.738 74.7 188.785 74.64L189.555 74.56V69.01H188.875C188.768 69.01 188.715 68.9633 188.715 68.87C188.715 68.8233 188.731 68.7433 188.765 68.63L188.785 68.55H190.915C190.941 68.59 190.955 68.6433 190.955 68.71C190.955 68.7833 190.931 68.85 190.885 68.91L190.115 68.99V74.54H190.795C190.901 74.54 190.955 74.5867 190.955 74.68C190.955 74.7267 190.938 74.8067 190.905 74.92L190.885 75Z" fill="black"/>
</svg>
