<svg width="39" height="39" viewBox="0 0 39 39" fill="none" xmlns="http://www.w3.org/2000/svg">
<circle cx="19.5" cy="19.5" r="19.5" fill="#111111"/>
<path d="M11.0824 19.016C11.0824 17.1707 11.413 15.7253 12.0744 14.68C12.7464 13.6347 13.8557 13.112 15.4024 13.112C16.949 13.112 18.053 13.6347 18.7144 14.68C19.3864 15.7253 19.7224 17.1707 19.7224 19.016C19.7224 20.872 19.3864 22.328 18.7144 23.384C18.053 24.44 16.949 24.968 15.4024 24.968C13.8557 24.968 12.7464 24.44 12.0744 23.384C11.413 22.328 11.0824 20.872 11.0824 19.016ZM17.5144 19.016C17.5144 18.2267 17.461 17.5653 17.3544 17.032C17.2584 16.488 17.0557 16.0453 16.7464 15.704C16.4477 15.3627 15.9997 15.192 15.4024 15.192C14.805 15.192 14.3517 15.3627 14.0424 15.704C13.7437 16.0453 13.541 16.488 13.4344 17.032C13.3384 17.5653 13.2904 18.2267 13.2904 19.016C13.2904 19.8267 13.3384 20.5093 13.4344 21.064C13.5304 21.608 13.733 22.0507 14.0424 22.392C14.3517 22.7227 14.805 22.888 15.4024 22.888C15.9997 22.888 16.453 22.7227 16.7624 22.392C17.0717 22.0507 17.2744 21.608 17.3704 21.064C17.4664 20.5093 17.5144 19.8267 17.5144 19.016ZM22.1301 22.472C23.1541 21.6187 23.9701 20.9093 24.5781 20.344C25.1861 19.768 25.6928 19.1707 26.0981 18.552C26.5035 17.9333 26.7061 17.3253 26.7061 16.728C26.7061 16.184 26.5781 15.7573 26.3221 15.448C26.0661 15.1387 25.6715 14.984 25.1381 14.984C24.6048 14.984 24.1941 15.1653 23.9061 15.528C23.6181 15.88 23.4688 16.3653 23.4581 16.984H21.2821C21.3248 15.704 21.7035 14.7333 22.4181 14.072C23.1435 13.4107 24.0608 13.08 25.1701 13.08C26.3861 13.08 27.3195 13.4053 27.9701 14.056C28.6208 14.696 28.9461 15.544 28.9461 16.6C28.9461 17.432 28.7221 18.2267 28.2741 18.984C27.8261 19.7413 27.3141 20.4027 26.7381 20.968C26.1621 21.5227 25.4101 22.1947 24.4821 22.984H29.2021V24.84H21.2981V23.176L22.1301 22.472Z" fill="white"/>
</svg>
