<svg width="39" height="39" viewBox="0 0 39 39" fill="none" xmlns="http://www.w3.org/2000/svg">
<circle cx="19.5" cy="19.5" r="19.5" fill="#111111"/>
<path d="M10.8871 19.016C10.8871 17.1707 11.2177 15.7253 11.8791 14.68C12.5511 13.6347 13.6604 13.112 15.2071 13.112C16.7537 13.112 17.8577 13.6347 18.5191 14.68C19.1911 15.7253 19.5271 17.1707 19.5271 19.016C19.5271 20.872 19.1911 22.328 18.5191 23.384C17.8577 24.44 16.7537 24.968 15.2071 24.968C13.6604 24.968 12.5511 24.44 11.8791 23.384C11.2177 22.328 10.8871 20.872 10.8871 19.016ZM17.3191 19.016C17.3191 18.2267 17.2657 17.5653 17.1591 17.032C17.0631 16.488 16.8604 16.0453 16.5511 15.704C16.2524 15.3627 15.8044 15.192 15.2071 15.192C14.6097 15.192 14.1564 15.3627 13.8471 15.704C13.5484 16.0453 13.3457 16.488 13.2391 17.032C13.1431 17.5653 13.0951 18.2267 13.0951 19.016C13.0951 19.8267 13.1431 20.5093 13.2391 21.064C13.3351 21.608 13.5377 22.0507 13.8471 22.392C14.1564 22.7227 14.6097 22.888 15.2071 22.888C15.8044 22.888 16.2577 22.7227 16.5671 22.392C16.8764 22.0507 17.0791 21.608 17.1751 21.064C17.2711 20.5093 17.3191 19.8267 17.3191 19.016ZM21.1348 22.728V20.968L26.3668 13.48H28.9748V20.776H30.3828V22.728H28.9748V25H26.7348V22.728H21.1348ZM26.8788 15.88L23.5988 20.776H26.8788V15.88Z" fill="white"/>
</svg>
