<svg width="39" height="39" viewBox="0 0 39 39" fill="none" xmlns="http://www.w3.org/2000/svg">
<circle cx="19.5" cy="19.5" r="19.5" fill="#111111"/>
<path d="M11.848 19.016C11.848 17.1707 12.1787 15.7253 12.84 14.68C13.512 13.6347 14.6213 13.112 16.168 13.112C17.7147 13.112 18.8187 13.6347 19.48 14.68C20.152 15.7253 20.488 17.1707 20.488 19.016C20.488 20.872 20.152 22.328 19.48 23.384C18.8187 24.44 17.7147 24.968 16.168 24.968C14.6213 24.968 13.512 24.44 12.84 23.384C12.1787 22.328 11.848 20.872 11.848 19.016ZM18.28 19.016C18.28 18.2267 18.2267 17.5653 18.12 17.032C18.024 16.488 17.8213 16.0453 17.512 15.704C17.2133 15.3627 16.7653 15.192 16.168 15.192C15.5707 15.192 15.1173 15.3627 14.808 15.704C14.5093 16.0453 14.3067 16.488 14.2 17.032C14.104 17.5653 14.056 18.2267 14.056 19.016C14.056 19.8267 14.104 20.5093 14.2 21.064C14.296 21.608 14.4987 22.0507 14.808 22.392C15.1173 22.7227 15.5707 22.888 16.168 22.888C16.7653 22.888 17.2187 22.7227 17.528 22.392C17.8373 22.0507 18.04 21.608 18.136 21.064C18.232 20.5093 18.28 19.8267 18.28 19.016ZM21.9198 15.4V13.336H25.7758V25H23.4718V15.4H21.9198Z" fill="white"/>
</svg>
