<svg width="39" height="39" viewBox="0 0 39 39" fill="none" xmlns="http://www.w3.org/2000/svg">
<circle cx="19.5" cy="19.5" r="19.5" fill="#111111"/>
<path d="M10.8871 19.016C10.8871 17.1707 11.2177 15.7253 11.8791 14.68C12.5511 13.6347 13.6604 13.112 15.2071 13.112C16.7537 13.112 17.8577 13.6347 18.5191 14.68C19.1911 15.7253 19.5271 17.1707 19.5271 19.016C19.5271 20.872 19.1911 22.328 18.5191 23.384C17.8577 24.44 16.7537 24.968 15.2071 24.968C13.6604 24.968 12.5511 24.44 11.8791 23.384C11.2177 22.328 10.8871 20.872 10.8871 19.016ZM17.3191 19.016C17.3191 18.2267 17.2657 17.5653 17.1591 17.032C17.0631 16.488 16.8604 16.0453 16.5511 15.704C16.2524 15.3627 15.8044 15.192 15.2071 15.192C14.6097 15.192 14.1564 15.3627 13.8471 15.704C13.5484 16.0453 13.3457 16.488 13.2391 17.032C13.1431 17.5653 13.0951 18.2267 13.0951 19.016C13.0951 19.8267 13.1431 20.5093 13.2391 21.064C13.3351 21.608 13.5377 22.0507 13.8471 22.392C14.1564 22.7227 14.6097 22.888 15.2071 22.888C15.8044 22.888 16.2577 22.7227 16.5671 22.392C16.8764 22.0507 17.0791 21.608 17.1751 21.064C17.2711 20.5093 17.3191 19.8267 17.3191 19.016ZM21.2628 16.408C21.3161 15.3413 21.6895 14.52 22.3828 13.944C23.0868 13.3573 24.0095 13.064 25.1508 13.064C25.9295 13.064 26.5961 13.2027 27.1508 13.48C27.7055 13.7467 28.1215 14.1147 28.3988 14.584C28.6868 15.0427 28.8308 15.5653 28.8308 16.152C28.8308 16.824 28.6548 17.3947 28.3028 17.864C27.9615 18.3227 27.5508 18.632 27.0708 18.792V18.856C27.6895 19.048 28.1695 19.3893 28.5108 19.88C28.8628 20.3707 29.0388 21 29.0388 21.768C29.0388 22.408 28.8895 22.9787 28.5908 23.48C28.3028 23.9813 27.8708 24.376 27.2948 24.664C26.7295 24.9413 26.0468 25.08 25.2468 25.08C24.0415 25.08 23.0601 24.776 22.3028 24.168C21.5455 23.56 21.1455 22.664 21.1028 21.48H23.2788C23.3001 22.0027 23.4761 22.424 23.8068 22.744C24.1481 23.0533 24.6121 23.208 25.1988 23.208C25.7428 23.208 26.1588 23.0587 26.4468 22.76C26.7455 22.4507 26.8948 22.056 26.8948 21.576C26.8948 20.936 26.6921 20.4773 26.2868 20.2C25.8815 19.9227 25.2521 19.784 24.3988 19.784H23.9348V17.944H24.3988C25.9135 17.944 26.6708 17.4373 26.6708 16.424C26.6708 15.9653 26.5321 15.608 26.2548 15.352C25.9881 15.096 25.5988 14.968 25.0868 14.968C24.5855 14.968 24.1961 15.1067 23.9188 15.384C23.6521 15.6507 23.4975 15.992 23.4548 16.408H21.2628Z" fill="white"/>
</svg>
