<svg width="40" height="38" viewBox="0 0 40 38" fill="none" xmlns="http://www.w3.org/2000/svg">
<g clip-path="url(#clip0_258_391)">
<path d="M23.5135 9.75883L27.6989 6.52047L29.556 7.47127L29.3085 12.917L23.5135 9.75883ZM19.9489 22.6239L28.204 13.988L22.388 10.8095L19.9489 22.6239ZM33.8502 9.66994L30.8559 8.13689L30.6067 13.6244L35.5469 16.3168L33.8502 9.66994ZM30.0392 14.8286L21.847 22.712L29.2534 19.1504C30.6053 22.6938 29.8398 26.9861 26.5468 29.7558C21.0135 34.4097 12.4636 31.3029 11.194 24.1769C10.2949 19.1301 13.5212 14.7253 17.8969 13.4621L19.1537 21.1065L20.9002 9.956L16.6095 7.50965L17.4646 11.4629C12.0786 12.9504 8.08399 18.3442 9.18619 24.5307C10.7304 33.1976 21.1291 36.9763 27.859 31.3159C31.8631 27.9481 32.7969 22.7284 31.1543 18.4193L34.3635 17.1852L30.0392 14.8286ZM26.3921 5.85139L22.7761 4L17.3617 6.40615L22.2394 9.06443L26.3921 5.85139Z" fill="white"/>
</g>
<defs>
<clipPath id="clip0_258_391">
<rect width="26.6062" height="30" fill="white" transform="translate(9 4)"/>
</clipPath>
</defs>
</svg>
