<svg width="23" height="16" viewBox="0 0 23 16" fill="none" xmlns="http://www.w3.org/2000/svg">
<path d="M22.4456 5.84082L21.1331 2.55957C21.0218 2.28195 20.8296 2.04416 20.5816 1.87701C20.3335 1.70985 20.041 1.62104 19.7419 1.62207H16.5V0.87207C16.5 0.673158 16.421 0.482393 16.2803 0.34174C16.1397 0.201088 15.9489 0.12207 15.75 0.12207H1.5C1.10218 0.12207 0.720644 0.280106 0.43934 0.56141C0.158035 0.842715 0 1.22425 0 1.62207V12.1221C0 12.5199 0.158035 12.9014 0.43934 13.1827C0.720644 13.464 1.10218 13.6221 1.5 13.6221H3.09375C3.25898 14.2674 3.63428 14.8393 4.16048 15.2478C4.68669 15.6563 5.33387 15.878 6 15.878C6.66613 15.878 7.31331 15.6563 7.83952 15.2478C8.36573 14.8393 8.74102 14.2674 8.90625 13.6221H13.5938C13.759 14.2674 14.1343 14.8393 14.6605 15.2478C15.1867 15.6563 15.8339 15.878 16.5 15.878C17.1661 15.878 17.8133 15.6563 18.3395 15.2478C18.8657 14.8393 19.241 14.2674 19.4063 13.6221H21C21.3978 13.6221 21.7794 13.464 22.0607 13.1827C22.342 12.9014 22.5 12.5199 22.5 12.1221V6.12207C22.5003 6.02568 22.4818 5.93017 22.4456 5.84082ZM16.5 3.12207H19.7419L20.6419 5.37207H16.5V3.12207ZM1.5 1.62207H15V7.62207H1.5V1.62207ZM6 14.3721C5.70333 14.3721 5.41332 14.2841 5.16665 14.1193C4.91997 13.9545 4.72771 13.7202 4.61418 13.4461C4.50065 13.172 4.47094 12.8704 4.52882 12.5794C4.5867 12.2885 4.72956 12.0212 4.93934 11.8114C5.14912 11.6016 5.41639 11.4588 5.70737 11.4009C5.99834 11.343 6.29994 11.3727 6.57403 11.4863C6.84811 11.5998 7.08238 11.792 7.2472 12.0387C7.41203 12.2854 7.5 12.5754 7.5 12.8721C7.5 13.2699 7.34197 13.6514 7.06066 13.9327C6.77936 14.214 6.39783 14.3721 6 14.3721ZM13.5938 12.1221H8.90625C8.74102 11.4768 8.36573 10.9048 7.83952 10.4963C7.31331 10.0879 6.66613 9.86619 6 9.86619C5.33387 9.86619 4.68669 10.0879 4.16048 10.4963C3.63428 10.9048 3.25898 11.4768 3.09375 12.1221H1.5V9.12207H15V10.2761C14.6551 10.4755 14.3532 10.7413 14.1119 11.0582C13.8705 11.375 13.6944 11.7366 13.5938 12.1221ZM16.5 14.3721C16.2033 14.3721 15.9133 14.2841 15.6666 14.1193C15.42 13.9545 15.2277 13.7202 15.1142 13.4461C15.0007 13.172 14.9709 12.8704 15.0288 12.5794C15.0867 12.2885 15.2296 12.0212 15.4393 11.8114C15.6491 11.6016 15.9164 11.4588 16.2074 11.4009C16.4983 11.343 16.7999 11.3727 17.074 11.4863C17.3481 11.5998 17.5824 11.792 17.7472 12.0387C17.912 12.2854 18 12.5754 18 12.8721C18 13.2699 17.842 13.6514 17.5607 13.9327C17.2794 14.214 16.8978 14.3721 16.5 14.3721ZM21 12.1221H19.4063C19.239 11.4783 18.863 10.9082 18.3371 10.5011C17.8112 10.0939 17.1651 9.8727 16.5 9.87207V6.87207H21V12.1221Z" fill="black"/>
</svg>
